  <svg
    xmlns="http://www.w3.org/2000/svg"
    width="429"
    height="40"
    viewBox="0 0 429 40"
    fill="none">
    <path
    d="M32.5 20.8334C32.5 18.5334 34.3667 16.6667 36.6667 16.6667V15C36.6667 8.33335 35 6.66669 28.3334 6.66669H11.6667C5.00004 6.66669 3.33337 8.33335 3.33337 15V15.8334C5.63337 15.8334 7.50004 17.7 7.50004 20C7.50004 22.3 5.63337 24.1667 3.33337 24.1667V25C3.33337 31.6667 5.00004 33.3334 11.6667 33.3334H28.3334C35 33.3334 36.6667 31.6667 36.6667 25C34.3667 25 32.5 23.1334 32.5 20.8334Z"
    stroke="white"
    stroke-width="1.5"
    stroke-linecap="round"
    stroke-linejoin="round"
    />
    <path
    d="M15 24.5833L25 14.5833"
    stroke="white"
    stroke-width="1.5"
    stroke-linecap="round"
    stroke-linejoin="round"
    />
    <path
    d="M24.9908 24.5833H25.0058"
    stroke="white"
    stroke-width="2"
    stroke-linecap="round"
    stroke-linejoin="round"
    />
    <path
    d="M14.9908 15.4166H15.0058"
    stroke="white"
    stroke-width="2"
    stroke-linecap="round"
    stroke-linejoin="round"
    />
    <path
    d="M61.5327 29.293C56.6133 29.293 53.4639 25.7163 53.4639 20.1011V20.0889C53.4639 14.5835 56.6133 11.0923 61.5327 11.0923C65.5854 11.0923 68.0146 13.4238 68.8325 16.5366L68.8936 16.7686H66.5864L66.5376 16.6343C65.7197 14.4004 64.0107 13.1187 61.5327 13.1187C57.9072 13.1187 55.71 15.7432 55.71 20.0889V20.1011C55.71 24.5322 57.9438 27.2666 61.5327 27.2666C64.6577 27.2666 66.8062 25.2402 66.8062 22.2861V21.9688H61.8379V20.04H69.0034V21.7124C69.0034 26.4731 66.2324 29.293 61.5327 29.293ZM72.6899 14.1562C71.9575 14.1562 71.3594 13.5581 71.3594 12.8257C71.3594 12.0811 71.9575 11.4951 72.6899 11.4951C73.4346 11.4951 74.0205 12.0811 74.0205 12.8257C74.0205 13.5581 73.4346 14.1562 72.6899 14.1562ZM71.6279 29V16.3047H73.752V29H71.6279ZM80.6123 14.8521V14.8154C81.3936 14.2417 81.8208 13.729 81.8208 13.2896C81.8208 12.7402 81.1372 12.4229 80.3071 12.4229C79.9165 12.4229 79.6968 12.4595 79.5381 12.4961V11.2388C79.8311 11.1167 80.3315 11.019 80.9053 11.019C82.2236 11.019 83.4443 11.7637 83.4443 12.9355C83.4443 13.6558 83.0537 14.2783 82.1748 14.8521H80.6123ZM80.356 29.2441C77.8291 29.2441 76.1323 27.7183 76.1323 25.4111V25.3867C76.1323 23.2261 77.8169 21.8711 80.7344 21.7002L84.3721 21.4927V20.4307C84.3721 18.8804 83.3589 17.9404 81.5889 17.9404C79.9531 17.9404 78.9277 18.7217 78.6836 19.8569L78.6592 19.9668H76.6084L76.6206 19.8325C76.8037 17.7451 78.6226 16.0605 81.6133 16.0605C84.6162 16.0605 86.4961 17.6841 86.4961 20.2231V29H84.3721V26.937H84.3232C83.5786 28.3286 82.0527 29.2441 80.356 29.2441ZM78.3052 25.4111C78.3052 26.6318 79.3062 27.4009 80.832 27.4009C82.834 27.4009 84.3721 26.0215 84.3721 24.1782V23.1406L80.9785 23.3481C79.2817 23.4458 78.3052 24.2026 78.3052 25.3867V25.4111ZM89.1938 29V16.3047H91.3179V18.1602H91.3667C91.9404 16.9028 93.21 16.0605 94.8457 16.0605C96.5791 16.0605 97.8608 16.9517 98.4102 18.502H98.459C99.167 16.9761 100.656 16.0605 102.438 16.0605C104.953 16.0605 106.577 17.7085 106.577 20.2354V29H104.453V20.7236C104.453 18.978 103.488 17.9404 101.816 17.9404C100.131 17.9404 98.9473 19.1978 98.9473 20.9312V29H96.8232V20.4917C96.8232 18.9536 95.7979 17.9404 94.2231 17.9404C92.5386 17.9404 91.3179 19.271 91.3179 21.041V29H89.1938ZM118.54 29.2441C116.208 29.2441 115.061 28.1943 115.061 25.7651V18.0625H113.205V16.3047H115.061V12.8745H117.258V16.3047H119.675V18.0625H117.258V25.7529C117.258 27.1079 117.856 27.4863 118.991 27.4863C119.248 27.4863 119.492 27.4497 119.675 27.4375V29.1587C119.406 29.1953 118.955 29.2441 118.54 29.2441ZM126.315 14.8521H124.68L126.767 11.1899H128.989L126.315 14.8521ZM126.853 29.2441C123.325 29.2441 120.969 26.6929 120.969 22.6523V22.6279C120.969 18.5874 123.337 16.0605 126.84 16.0605H126.853C129.99 15.8652 130.795 15.0962 130.869 12.8501H132.749C132.7 15.1328 132.077 16.2803 129.892 16.8418C131.65 17.8794 132.724 19.9058 132.724 22.6279V22.6523C132.724 26.7051 130.356 29.2441 126.853 29.2441ZM126.865 27.3643C129.099 27.3643 130.551 25.6309 130.551 22.6523V22.6279C130.551 19.6494 129.086 17.9404 126.84 17.9404C124.631 17.9404 123.142 19.6616 123.142 22.6279V22.6523C123.142 25.6431 124.619 27.3643 126.865 27.3643ZM136.069 14.1562C135.336 14.1562 134.738 13.5581 134.738 12.8257C134.738 12.0811 135.336 11.4951 136.069 11.4951C136.813 11.4951 137.399 12.0811 137.399 12.8257C137.399 13.5581 136.813 14.1562 136.069 14.1562ZM135.007 29V16.3047H137.131V29H135.007ZM145.2 29V27.4863L151.401 21.0166C153.781 18.5386 154.331 17.5864 154.331 16.1216V16.0972C154.318 14.3027 152.963 13.0088 151.047 13.0088C148.85 13.0088 147.214 14.5225 147.214 16.4146V16.4756H145.09V16.4023C145.09 13.3506 147.727 11.0923 151.01 11.0923C154.196 11.0923 156.528 13.2285 156.528 15.9873V16.0117C156.528 17.9404 155.637 19.3931 152.402 22.7012L148.215 26.998V27.0469H156.821V29H145.2ZM168.564 29.2441C166.232 29.2441 165.085 28.1943 165.085 25.7651V18.0625H163.229V16.3047H165.085V12.8745H167.282V16.3047H169.699V18.0625H167.282V25.7529C167.282 27.1079 167.88 27.4863 169.016 27.4863C169.272 27.4863 169.516 27.4497 169.699 27.4375V29.1587C169.431 29.1953 168.979 29.2441 168.564 29.2441ZM171.982 29V16.3047H174.106V18.4531H174.155C174.582 16.9883 175.681 16.0605 177.109 16.0605C177.475 16.0605 177.792 16.1216 177.963 16.146V18.209C177.792 18.1479 177.341 18.0869 176.828 18.0869C175.18 18.0869 174.106 19.2344 174.106 21.1631V29H171.982ZM180.893 14.1562C180.161 14.1562 179.562 13.5581 179.562 12.8257C179.562 12.0811 180.161 11.4951 180.893 11.4951C181.638 11.4951 182.224 12.0811 182.224 12.8257C182.224 13.5581 181.638 14.1562 180.893 14.1562ZM179.831 29V16.3047H181.955V29H179.831ZM186.301 14.8521L188.999 11.1899H191.025L193.723 14.8521H191.892L190.012 12.313L188.132 14.8521H186.301ZM190.073 29.2441C186.423 29.2441 184.226 26.6929 184.226 22.7012V22.689C184.226 18.7583 186.472 16.0605 189.938 16.0605C193.405 16.0605 195.517 18.6362 195.517 22.4448V23.2261H186.374C186.423 25.8384 187.863 27.3643 190.122 27.3643C191.733 27.3643 192.868 26.5586 193.234 25.4722L193.271 25.3623H195.358L195.334 25.4844C194.919 27.584 192.844 29.2441 190.073 29.2441ZM189.926 17.9404C188.083 17.9404 186.643 19.1978 186.411 21.5659H193.356C193.149 19.1001 191.782 17.9404 189.926 17.9404ZM190.109 33.8096C189.377 33.8096 188.779 33.2114 188.779 32.479C188.779 31.7344 189.377 31.1484 190.109 31.1484C190.854 31.1484 191.44 31.7344 191.44 32.479C191.44 33.2114 190.854 33.8096 190.109 33.8096ZM201.999 29.2441C199.216 29.2441 197.604 27.4375 197.604 24.5444V16.3047H199.729V24.166C199.729 26.229 200.693 27.3643 202.646 27.3643C204.648 27.3643 205.954 25.936 205.954 23.7754V16.3047H208.078V29H205.954V27.1934H205.905C205.222 28.3774 203.928 29.2441 201.999 29.2441ZM224.826 33.2725V26.937H224.777C224.021 28.3286 222.556 29.2197 220.737 29.2197C217.539 29.2197 215.354 26.6318 215.354 22.6401V22.6279C215.354 18.6606 217.563 16.085 220.786 16.085C222.58 16.085 223.996 17.0493 224.777 18.4531H224.826V16.3047H226.95V33.2725H224.826ZM221.201 27.3398C223.361 27.3398 224.826 25.4844 224.826 22.6401V22.6279C224.826 19.8081 223.349 17.9648 221.201 17.9648C218.942 17.9648 217.526 19.7837 217.526 22.6279V22.6401C217.526 25.5454 218.942 27.3398 221.201 27.3398ZM234.03 29.2441C231.247 29.2441 229.636 27.4375 229.636 24.5444V16.3047H231.76V24.166C231.76 26.229 232.724 27.3643 234.677 27.3643C236.679 27.3643 237.985 25.936 237.985 23.7754V16.3047H240.109V29H237.985V27.1934H237.937C237.253 28.3774 235.959 29.2441 234.03 29.2441ZM246.591 29.2441C244.064 29.2441 242.368 27.7183 242.368 25.4111V25.3867C242.368 23.2261 244.052 21.8711 246.97 21.7002L250.607 21.4927V20.4307C250.607 18.8804 249.594 17.9404 247.824 17.9404C246.188 17.9404 245.163 18.7217 244.919 19.8569L244.895 19.9668H242.844L242.856 19.8325C243.039 17.7451 244.858 16.0605 247.849 16.0605C250.852 16.0605 252.731 17.6841 252.731 20.2231V29H250.607V26.937H250.559C249.814 28.3286 248.288 29.2441 246.591 29.2441ZM244.541 25.4111C244.541 26.6318 245.542 27.4009 247.067 27.4009C249.069 27.4009 250.607 26.0215 250.607 24.1782V23.1406L247.214 23.3481C245.517 23.4458 244.541 24.2026 244.541 25.3867V25.4111ZM265.817 29.2441C262.216 29.2441 259.934 26.6807 259.934 22.6401V22.6279C259.934 18.624 262.265 16.0605 265.793 16.0605C268.955 16.0605 270.822 18.1602 271.091 20.333L271.103 20.4307H269.028L269.003 20.333C268.686 19.0635 267.661 17.9404 265.793 17.9404C263.583 17.9404 262.106 19.7715 262.106 22.6523V22.6646C262.106 25.6187 263.62 27.3643 265.817 27.3643C267.551 27.3643 268.662 26.3877 269.016 24.9717L269.04 24.874H271.127L271.115 24.9595C270.773 27.3765 268.686 29.2441 265.817 29.2441ZM280.258 10.958V10.9214C280.966 10.4087 281.32 9.9082 281.32 9.49316C281.32 8.99268 280.734 8.69971 280.002 8.69971C279.611 8.69971 279.392 8.73633 279.233 8.77295V7.51562C279.514 7.39355 280.002 7.2959 280.551 7.2959C281.796 7.2959 282.944 8.01611 282.944 9.16357C282.944 9.83496 282.614 10.4453 281.821 10.958H280.258ZM274.582 14.8521L277.353 11.1899H279.331L282.102 14.8521H280.271L278.342 12.3008L276.413 14.8521H274.582ZM278.342 29.2441C274.814 29.2441 272.458 26.6929 272.458 22.6523V22.6279C272.458 18.5874 274.826 16.0605 278.33 16.0605C281.833 16.0605 284.213 18.5752 284.213 22.6279V22.6523C284.213 26.7051 281.845 29.2441 278.342 29.2441ZM278.354 27.3643C280.588 27.3643 282.041 25.6309 282.041 22.6523V22.6279C282.041 19.6494 280.576 17.9404 278.33 17.9404C276.12 17.9404 274.631 19.6616 274.631 22.6279V22.6523C274.631 25.6431 276.108 27.3643 278.354 27.3643ZM286.362 29V16.3047H288.486V18.1113H288.535C289.218 16.9272 290.512 16.0605 292.441 16.0605C295.224 16.0605 296.835 17.8672 296.835 20.7603V29H294.711V21.1387C294.711 19.0757 293.747 17.9404 291.794 17.9404C289.792 17.9404 288.486 19.3687 288.486 21.5293V29H286.362ZM304.917 33.5166C301.779 33.5166 299.802 32.0396 299.387 30.1597L299.362 30.0498H301.499L301.547 30.1597C301.95 31.0752 303.159 31.6367 304.892 31.6367C307.126 31.6367 308.396 30.4038 308.396 28.4385V26.8149H308.347C307.59 28.2188 306.125 29.1221 304.306 29.1221C301.108 29.1221 298.923 26.5464 298.923 22.5791V22.5669C298.923 18.624 301.132 16.0605 304.355 16.0605C306.149 16.0605 307.565 17.0371 308.347 18.4531H308.396V16.3047H310.52V28.646C310.52 31.5879 308.359 33.5166 304.917 33.5166ZM304.77 27.2422C306.931 27.2422 308.396 25.3989 308.396 22.5791V22.5669C308.396 19.7715 306.918 17.9404 304.77 17.9404C302.512 17.9404 301.096 19.7471 301.096 22.5669V22.5791C301.096 25.46 302.512 27.2422 304.77 27.2422ZM322.519 29.2441C320.188 29.2441 319.04 28.1943 319.04 25.7651V18.0625H317.185V16.3047H319.04V12.8745H321.237V16.3047H323.654V18.0625H321.237V25.7529C321.237 27.1079 321.835 27.4863 322.971 27.4863C323.227 27.4863 323.471 27.4497 323.654 27.4375V29.1587C323.386 29.1953 322.934 29.2441 322.519 29.2441ZM326.047 29V11.3853H328.171V18.3311H328.22C328.903 16.9028 330.283 16.0605 332.175 16.0605C334.873 16.0605 336.716 18.1479 336.716 21.2241V29H334.592V21.5903C334.592 19.2954 333.42 17.9404 331.442 17.9404C329.477 17.9404 328.171 19.4297 328.171 21.5903V29H326.047ZM343.125 29.2441C340.598 29.2441 338.901 27.7183 338.901 25.4111V25.3867C338.901 23.2261 340.585 21.8711 343.503 21.7002L347.141 21.4927V20.4307C347.141 18.8804 346.127 17.9404 344.357 17.9404C342.722 17.9404 341.696 18.7217 341.452 19.8569L341.428 19.9668H339.377L339.389 19.8325C339.572 17.7451 341.391 16.0605 344.382 16.0605C347.385 16.0605 349.265 17.6841 349.265 20.2231V29H347.141V26.937H347.092C346.347 28.3286 344.821 29.2441 343.125 29.2441ZM341.074 25.4111C341.074 26.6318 342.075 27.4009 343.601 27.4009C345.603 27.4009 347.141 26.0215 347.141 24.1782V23.1406L343.747 23.3481C342.05 23.4458 341.074 24.2026 341.074 25.3867V25.4111ZM351.962 29V16.3047H354.086V18.1113H354.135C354.819 16.9272 356.113 16.0605 358.042 16.0605C360.825 16.0605 362.436 17.8672 362.436 20.7603V29H360.312V21.1387C360.312 19.0757 359.348 17.9404 357.395 17.9404C355.393 17.9404 354.086 19.3687 354.086 21.5293V29H351.962ZM365.256 29V11.3853H367.38V18.3311H367.429C368.112 16.9028 369.492 16.0605 371.384 16.0605C374.082 16.0605 375.925 18.1479 375.925 21.2241V29H373.801V21.5903C373.801 19.2954 372.629 17.9404 370.651 17.9404C368.686 17.9404 367.38 19.4297 367.38 21.5903V29H365.256ZM387.875 29.2441C385.544 29.2441 384.396 28.1943 384.396 25.7651V18.0625H382.541V16.3047H384.396V12.8745H386.594V16.3047H389.011V18.0625H386.594V25.7529C386.594 27.1079 387.192 27.4863 388.327 27.4863C388.583 27.4863 388.828 27.4497 389.011 27.4375V29.1587C388.742 29.1953 388.291 29.2441 387.875 29.2441ZM396.188 29.2441C392.661 29.2441 390.305 26.6929 390.305 22.6523V22.6279C390.305 18.5874 392.673 16.0605 396.176 16.0605C399.68 16.0605 402.06 18.5752 402.06 22.6279V22.6523C402.06 26.7051 399.692 29.2441 396.188 29.2441ZM396.201 27.3643C398.435 27.3643 399.887 25.6309 399.887 22.6523V22.6279C399.887 19.6494 398.422 17.9404 396.176 17.9404C393.967 17.9404 392.478 19.6616 392.478 22.6279V22.6523C392.478 25.6431 393.955 27.3643 396.201 27.3643ZM409.763 14.8521H408.127L410.214 11.1899H412.436L409.763 14.8521ZM407.919 29.2441C405.393 29.2441 403.696 27.7183 403.696 25.4111V25.3867C403.696 23.2261 405.38 21.8711 408.298 21.7002L411.936 21.4927V20.4307C411.936 18.8804 410.922 17.9404 409.152 17.9404C407.517 17.9404 406.491 18.7217 406.247 19.8569L406.223 19.9668H404.172L404.184 19.8325C404.367 17.7451 406.186 16.0605 409.177 16.0605C412.18 16.0605 414.06 17.6841 414.06 20.2231V29H411.936V26.937H411.887C411.142 28.3286 409.616 29.2441 407.919 29.2441ZM405.869 25.4111C405.869 26.6318 406.87 27.4009 408.396 27.4009C410.397 27.4009 411.936 26.0215 411.936 24.1782V23.1406L408.542 23.3481C406.845 23.4458 405.869 24.2026 405.869 25.3867V25.4111ZM416.757 29V16.3047H418.881V18.1113H418.93C419.614 16.9272 420.908 16.0605 422.836 16.0605C425.62 16.0605 427.231 17.8672 427.231 20.7603V29H425.107V21.1387C425.107 19.0757 424.143 17.9404 422.189 17.9404C420.188 17.9404 418.881 19.3687 418.881 21.5293V29H416.757Z"
    fill="white"
    />
</svg>